# xmcd
#
# Track frame offsets: 
#        150
#        21459
#        37217
#        57161
#        73777
#        91526
#        110834
#        131279
#        148893
#        167290
#        185492
#        204393
#        221641
#        238683
#        253749
#        267804
#        288618
#        304203
#
# Disc length: 4344 seconds
#
# Revision: 0
# Processed by: cddbd v1.4PL0 Copyright (c) Steve Scherf et al.
# Submitted via: ExactAudioCopy v0.95a3
#
DISCID=1510f612
DTITLE=陈白强 - 一生何求 经典纪念专辑HDCD 24k 3CD 1
DYEAR=2002
DGENRE=Pop
TTITLE0=一生何求
TTITLE1=偏偏喜欢你
TTITLE2=烟雨凄迷
TTITLE3=恋爱预告
TTITLE4=痴心晚安
TTITLE5=漫长盼望
TTITLE6=从今以后
TTITLE7=凝望
TTITLE8=无声胜有声
TTITLE9=感情到老
TTITLE10=梦里人
TTITLE11=神仙也移民
TTITLE12=今宵多珍重
TTITLE13=痴心眼内藏
TTITLE14=相思河畔
TTITLE15=天生不是情人
TTITLE16=念亲恩
TTITLE17=对酒当歌
EXTD=
EXTT0=
EXTT1=
EXTT2=
EXTT3=
EXTT4=
EXTT5=
EXTT6=
EXTT7=
EXTT8=
EXTT9=
EXTT10=
EXTT11=
EXTT12=
EXTT13=
EXTT14=
EXTT15=
EXTT16=
EXTT17=
PLAYORDER=
